<?xml version="1.0" encoding="utf-8"?>
<!-- Generator: Adobe Illustrator 28.3.0, SVG Export Plug-In . SVG Version: 6.00 Build 0)  -->
<svg version="1.1" id="Layer_2_00000085238967454100131950000017002193926079531704_"
	 xmlns="http://www.w3.org/2000/svg" xmlns:xlink="http://www.w3.org/1999/xlink" x="0px" y="0px" viewBox="0 0 29.3 29.3"
	 style="enable-background:new 0 0 29.3 29.3;" xml:space="preserve">
<style type="text/css">
	.st0{fill:#DD7FD2;}
	.st1{fill:none;stroke:#000000;stroke-width:0.69;stroke-miterlimit:10;}
</style>
<g>
	<g>
		<path class="st0" d="M23.2,12.9c-0.2,0.2-0.4,0.5-0.6,0.7c-0.2,0.2-0.4,0.4-0.5,0.6c-0.2,0.2-0.3,0.2-0.6,0.1c0,0.2,0,0.5,0,0.7
			c0,0.6,0,1.3,0,1.9c0,0.2-0.2,0.4-0.4,0.4c-0.2,0-0.3-0.2-0.3-0.4c0-0.7,0-1.4,0-2.2c0-0.3,0-0.5,0-0.8c0-0.1,0-0.2-0.1-0.2
			c-1.9-1.4-3.7-2.9-5.5-4.3C15,9.2,14.8,9.1,14.7,9c-0.3,0.2-0.6,0.5-0.9,0.7c-1.7,1.3-3.4,2.6-5,3.9c-0.1,0.1-0.1,0.1-0.1,0.2
			c0,2.8,0,5.7,0,8.5c0,0,0,0.1,0,0.1h0.9c0-0.1,0-0.1,0-0.2c0-1,0-1.9,0-2.9c0,0,0-0.1,0-0.1c0-0.2,0.2-0.3,0.3-0.3
			s0.3,0.1,0.3,0.3c0,0.1,0,0.1,0,0.2c0,0.9,0,1.9,0,2.8c0,0.1,0,0.1,0,0.2h10.6v-0.2c0-0.9,0-1.8,0-2.8c0,0,0-0.1,0-0.1
			c0-0.2,0.1-0.4,0.3-0.4c0.2,0,0.3,0.1,0.3,0.4c0,0.1,0,0.2,0,0.3c0,0.9,0,1.8,0,2.8h0.2c0.4,0,0.8,0,1.2,0c0.2,0,0.4,0.1,0.5,0.2
			V23c-0.1,0.2-0.2,0.2-0.5,0.2c-5.4,0-10.8,0-16.2,0c-0.1,0-0.1,0-0.2,0c-0.2,0-0.3-0.2-0.3-0.3s0.1-0.3,0.3-0.3c0.1,0,0.1,0,0.2,0
			c0.4,0,0.8,0,1.3,0v-8.3c-0.2,0.1-0.3,0.1-0.5,0c-0.4-0.4-0.8-0.8-1.2-1.2c-0.2-0.2-0.2-0.4,0-0.5c0,0,0.1-0.1,0.1-0.1
			c2-1.5,3.9-3.1,5.9-4.6c0.8-0.6,1.5-1.2,2.3-1.8c0.1,0,0.1,0,0.2,0c0.1,0,0.1,0.1,0.2,0.1c0.9,0.7,1.7,1.4,2.6,2
			c0.3,0.2,0.6,0.5,0.9,0.7c0-0.4,0-0.8,0-1.2c0-0.3,0.1-0.4,0.4-0.4c0.6,0,1.2,0,1.8,0c0.3,0,0.4,0.1,0.4,0.4c0,1,0,2.1,0,3.1
			c0,0.1,0,0.2,0.1,0.3c0.6,0.4,1.2,0.9,1.7,1.4c0.1,0.1,0.2,0.2,0.3,0.3L23.2,12.9L23.2,12.9z M7.7,13.6c0,0,0.1-0.1,0.1-0.1
			c2.2-1.7,4.4-3.4,6.6-5.1c0.2-0.2,0.4-0.2,0.6,0c2.2,1.7,4.4,3.4,6.6,5.1c0,0,0.1,0.1,0.1,0.1c0.2-0.2,0.5-0.5,0.7-0.7
			c-2.6-2-5.1-4-7.7-6c-2.6,2-5.2,4-7.7,6C7.2,13.1,7.4,13.3,7.7,13.6L7.7,13.6z M20.4,10.5V8h-1.3c0,0.5,0,1,0,1.4c0,0,0,0.1,0,0.1
			C19.6,9.8,20,10.1,20.4,10.5L20.4,10.5z"/>
		<path class="st0" d="M18.2,16.9c0,1,0,2.1,0,3.1c0,0.3-0.1,0.4-0.4,0.4c-2.1,0-4.2,0-6.2,0c-0.3,0-0.4-0.1-0.4-0.4
			c0-2.1,0-4.2,0-6.3c0-0.3,0.1-0.4,0.4-0.4c2.1,0,4.2,0,6.3,0c0.3,0,0.4,0.1,0.4,0.4C18.2,14.9,18.2,15.9,18.2,16.9L18.2,16.9z
			 M14.3,16.6v-2.5h-2.5v2.5H14.3z M17.5,14.1H15v2.5h2.5C17.5,16.6,17.5,14,17.5,14.1z M14.3,19.8v-2.5h-2.5v2.5H14.3z M15,19.8
			h2.5v-2.5H15C15,17.3,15,19.8,15,19.8z"/>
		<path class="st0" d="M10.2,18.1c0,0.2-0.1,0.3-0.3,0.3c-0.2,0-0.3-0.1-0.3-0.3c0-0.2,0.1-0.3,0.3-0.3C10,17.7,10.2,17.9,10.2,18.1
			z"/>
		<path class="st0" d="M21.1,17.9c0.2,0,0.3,0.2,0.3,0.3c0,0.2-0.2,0.3-0.3,0.3s-0.3-0.2-0.3-0.3C20.7,18.1,20.9,17.9,21.1,17.9z"/>
	</g>
	<ellipse class="st1" cx="14.6" cy="14.6" rx="14.3" ry="14.3"/>
</g>
</svg>
