<?xml version="1.0" encoding="utf-8"?>
<!-- Generator: Adobe Illustrator 28.3.0, SVG Export Plug-In . SVG Version: 6.00 Build 0)  -->
<svg version="1.1" id="Layer_2_00000165927539414262498750000011118732527434110381_"
	 xmlns="http://www.w3.org/2000/svg" xmlns:xlink="http://www.w3.org/1999/xlink" x="0px" y="0px" viewBox="0 0 29.3 29.3"
	 style="enable-background:new 0 0 29.3 29.3;" xml:space="preserve">
<style type="text/css">
	.st0{fill:none;stroke:#E041D5;stroke-width:0.69;}
	.st1{fill:none;stroke:#000000;stroke-width:0.69;stroke-miterlimit:10;}
</style>
<g id="Layer_1-2">
	<g>
		<path class="st0" d="M11.4,22c0.9-0.1,1.3-0.7,1.3-1.6v-4.5c0-1.2-0.5-2-1.5-2.2v-1.1c2.1-0.5,4-0.9,5.9-1c-0.1,1-0.2,2-0.2,3.1
			v5.7c0,1,0.4,1.5,1.3,1.6v1.2h-6.8L11.4,22L11.4,22z M12.7,8.1c0-1.2,0.9-2.1,2.1-2.1c1.1,0,2,0.9,2,2.1c0,1-0.9,2-2,2
			C13.6,10.1,12.7,9.2,12.7,8.1z"/>
		<ellipse class="st1" cx="14.6" cy="14.6" rx="14.3" ry="14.3"/>
	</g>
</g>
</svg>
