<?xml version="1.0" encoding="utf-8"?>
<!-- Generator: Adobe Illustrator 28.3.0, SVG Export Plug-In . SVG Version: 6.00 Build 0)  -->
<svg version="1.1" id="Layer_2_00000103969120200659057280000014412532586420905128_"
	 xmlns="http://www.w3.org/2000/svg" xmlns:xlink="http://www.w3.org/1999/xlink" x="0px" y="0px" viewBox="0 0 29.3 29.3"
	 style="enable-background:new 0 0 29.3 29.3;" xml:space="preserve">
<style type="text/css">
	.st0{fill:#E041D5;}
	.st1{fill:none;stroke:#000000;stroke-width:0.69;stroke-miterlimit:10;}
</style>
<g id="Layer_1-2">
	<g>
		<g>
			<path class="st0" d="M23.2,20c-1,1-2.1,2.1-3.1,3.1c-0.2,0.2-0.3,0.2-0.5,0c-1.7-1.7-3.5-3.5-5.2-5.2c-0.1,0-0.1-0.1-0.1-0.2
				c-0.5,0.5-0.9,0.9-1.3,1.3c-1.1,1.1-2.1,2.1-3.2,3.2c-0.1,0.1-0.2,0.2-0.3,0.2c-1,0.2-2,0.5-2.9,0.7c-0.3,0.1-0.4-0.1-0.4-0.4
				c0.2-1,0.5-2,0.8-3c0-0.1,0.1-0.2,0.2-0.3c1.5-1.5,2.9-2.9,4.4-4.4c0,0,0.1-0.1,0.1-0.1c-0.1-0.1-0.1-0.1-0.1-0.1
				c-0.6-0.6-1.3-1.3-1.9-1.9c0,0-0.1-0.1-0.1-0.1c-0.1-0.1-0.1-0.2,0-0.3s0.2-0.1,0.3,0c0.1,0,0.1,0.1,0.1,0.1c0.7,0.7,1.4,1.4,2,2
				c0.9-0.9,1.9-1.9,2.8-2.8c-0.2-0.2-0.4-0.4-0.7-0.7c-0.2,0.2-0.4,0.4-0.6,0.6c-0.1,0.1-0.3,0.1-0.4,0c-0.1-0.1-0.1-0.2,0-0.4
				c0.1-0.1,0.1-0.1,0.1-0.1c0.1-0.1,0.3-0.3,0.4-0.4c-0.4-0.4-0.8-0.8-1.2-1.2c-0.2,0.2-0.4,0.4-0.6,0.6c-0.1,0.1-0.3,0.1-0.4,0
				s-0.1-0.2,0-0.4c0.2-0.2,0.4-0.4,0.6-0.6c-0.4-0.4-0.8-0.8-1.2-1.2c-0.2,0.2-0.4,0.4-0.6,0.6c-0.1,0.1-0.3,0.1-0.4,0
				C9.9,8.6,9.9,8.5,10,8.4c0.2-0.2,0.4-0.4,0.6-0.6c-0.4-0.4-0.8-0.8-1.1-1.1C8.6,7.6,7.7,8.5,6.7,9.5c0,0,0.1,0.1,0.1,0.1
				C7.5,10.3,8.2,11,9,11.7c0,0,0.1,0.1,0.1,0.1c0.1,0.1,0.1,0.2,0,0.3c-0.1,0.1-0.2,0.1-0.3,0c-0.1,0-0.1-0.1-0.1-0.1
				C7.8,11.3,7,10.5,6.2,9.7C6,9.5,6,9.4,6.2,9.2c1-1,2-2,3-3C9.4,6,9.5,6,9.7,6.2c1.7,1.7,3.4,3.4,5.2,5.2c0,0,0.1,0.1,0.1,0.1
				c0.9-0.9,1.8-1.8,2.7-2.7c-0.1-0.2-0.1-0.3,0.1-0.4c0.5-0.5,0.9-0.9,1.4-1.4c0.2-0.2,0.2-0.2,0.5-0.1c0.1-0.1,0.3-0.3,0.4-0.4
				C20.6,6,21.6,6,22,6.5c0.3,0.3,0.5,0.5,0.8,0.8C23,7.5,23.1,7.7,23.2,8v0.4c-0.1,0.5-0.5,0.8-0.8,1.1c0.1,0.2,0.1,0.3-0.1,0.5
				c-0.5,0.5-0.9,0.9-1.4,1.4c-0.2,0.2-0.2,0.2-0.5,0.1c-0.9,0.9-1.8,1.8-2.7,2.7c0,0,0.1,0.1,0.1,0.1c0.5,0.5,1.1,1.1,1.6,1.6
				c1.2,1.2,2.5,2.5,3.7,3.7V20L23.2,20z M21.5,18.7c-0.2,0.2-0.4,0.4-0.5,0.5c-0.1,0.1-0.3,0.1-0.4,0c-0.1-0.1-0.1-0.3,0-0.4
				c0.2-0.2,0.4-0.4,0.5-0.5c-0.4-0.4-0.8-0.8-1.2-1.2c-0.2,0.2-0.4,0.4-0.5,0.6c-0.1,0.1-0.2,0.1-0.3,0.1c-0.1-0.1-0.2-0.3,0-0.4
				c0.2-0.2,0.4-0.4,0.5-0.5c-0.4-0.4-0.8-0.8-1.1-1.2c-0.1,0.2-0.3,0.3-0.5,0.5c0,0-0.1,0.1-0.1,0.1c-0.1,0.1-0.3,0.1-0.4,0
				s-0.1-0.2,0-0.4c0.2-0.2,0.4-0.4,0.6-0.6c-0.2-0.2-0.5-0.5-0.7-0.7c-0.9,0.9-1.8,1.8-2.7,2.7c1.7,1.7,3.5,3.5,5.2,5.2
				c0.9-0.9,1.8-1.8,2.7-2.7C22.2,19.4,21.8,19.1,21.5,18.7L21.5,18.7z M18.7,9.7c0,0-0.1,0.1-0.1,0.1c-3.4,3.4-6.7,6.7-10.1,10.1
				c0,0,0,0-0.1,0c0,0-0.1,0.1-0.1,0.2c0,0.2,0,0.4,0.1,0.6c0.1,0.1,0.3,0.1,0.5,0.1c0.1,0,0.2,0,0.3-0.1c3.4-3.4,6.7-6.7,10.1-10.1
				c0,0,0.1-0.1,0.1-0.1C19.2,10.3,19,10,18.7,9.7L18.7,9.7z M18.2,9.2c-3.5,3.5-7,7-10.5,10.5c0.2,0.1,0.4,0.1,0.5-0.1
				c3.3-3.3,6.7-6.7,10-10c0,0,0.1-0.1,0.1-0.1C18.3,9.3,18.2,9.2,18.2,9.2z M9.6,21.6c3.5-3.5,7-7,10.4-10.4c0-0.1-0.1-0.1-0.2-0.2
				c0,0.1-0.1,0.1-0.1,0.1c-3.3,3.3-6.6,6.7-10,10C9.6,21.2,9.5,21.3,9.6,21.6z M22.1,9.2c0.1-0.1,0.3-0.3,0.4-0.4
				c0.3-0.3,0.3-0.8,0-1.1c-0.3-0.3-0.6-0.6-0.9-0.8c-0.3-0.3-0.8-0.3-1.1,0c-0.2,0.1-0.3,0.3-0.5,0.5C20.7,7.9,21.4,8.5,22.1,9.2
				L22.1,9.2z M21.3,10.4c-0.8-0.8-1.6-1.6-2.4-2.4c-0.2,0.2-0.4,0.4-0.6,0.6c0.8,0.8,1.6,1.6,2.4,2.4
				C20.9,10.8,21.1,10.6,21.3,10.4L21.3,10.4z M7.3,20.1c-0.1,0.4-0.2,0.7-0.3,1.1c0,0,0,0.1,0.1,0.2c0.3,0.3,0.6,0.6,0.8,0.8
				c0,0,0.1,0.1,0.1,0c0.4-0.1,0.7-0.2,1.1-0.3c0-0.2-0.1-0.3-0.1-0.5c0,0-0.1-0.1-0.1-0.1c-0.2,0-0.4-0.1-0.6-0.1
				c-0.2,0-0.3-0.1-0.3-0.3c0-0.2-0.1-0.4-0.1-0.6c0,0-0.1-0.1-0.1-0.1C7.6,20.1,7.5,20.1,7.3,20.1L7.3,20.1z M19.3,7.6
				c0.8,0.8,1.6,1.6,2.4,2.4c0.1-0.1,0.1-0.1,0.2-0.2c-0.8-0.8-1.6-1.6-2.4-2.4C19.4,7.5,19.4,7.5,19.3,7.6L19.3,7.6z M6.7,22.6
				c0.2-0.1,0.5-0.1,0.7-0.2c-0.2-0.2-0.3-0.4-0.5-0.5C6.8,22.1,6.8,22.3,6.7,22.6z"/>
			<path class="st0" d="M8.7,8.6c0.4,0,0.8,0.4,0.8,0.8c0,0.4-0.4,0.8-0.8,0.8c-0.4,0-0.8-0.4-0.8-0.8C7.9,9,8.2,8.7,8.7,8.6
				L8.7,8.6z M9,9.4c0-0.2-0.1-0.3-0.3-0.3S8.4,9.3,8.4,9.4c0,0.2,0.1,0.3,0.3,0.3C8.8,9.7,9,9.6,9,9.4z"/>
		</g>
		<ellipse class="st1" cx="14.6" cy="14.6" rx="14.3" ry="14.3"/>
	</g>
</g>
</svg>
